<svg xmlns="http://www.w3.org/2000/svg" viewBox="0 0 42.75 71.61"><defs><style>.cls-1{fill:#fff;}</style></defs><g id="Layer_2" data-name="Layer 2"><g id="Objects"><path class="cls-1" d="M24.54,33c-.15,0-.1-1.52-.19-4.22a91.42,91.42,0,0,0-1-11.38c-.19-1.17-.42-2.45-.72-3.64a3.15,3.15,0,0,0-2.24-2.25,3,3,0,0,0-1.69,0,3.38,3.38,0,0,0-1.54.91,4.66,4.66,0,0,0-.6.73,5.75,5.75,0,0,0-.4.89,8.38,8.38,0,0,0-.5,2.09c0,6.4-.07,13.42-.1,20.8,0,1.49,0,3,0,4.36a1,1,0,0,1-1,1,1,1,0,0,1-.76-.36l-.83-1c-.27-.32-.51-.53-.76-.81a12.57,12.57,0,0,0-1.93-1.35,17.49,17.49,0,0,0-4.21-2,3.82,3.82,0,0,0-3.57.69,2.08,2.08,0,0,0-.09,2.92A33.4,33.4,0,0,0,5.5,43.11,12.61,12.61,0,0,1,8,46.66c1.18,2.45,1.92,4.72,3.14,6.45A55.89,55.89,0,0,1,14.61,58a10,10,0,0,1,1.18,4.51,18.48,18.48,0,0,1-.12,2.87c-.08.64-.16,1-.22,1s-.12-.35-.16-1-.08-1.6-.24-2.8a9.83,9.83,0,0,0-1.37-4c-.86-1.45-2.27-2.83-3.65-4.67s-2.3-4.26-3.46-6.5a11.07,11.07,0,0,0-2.22-3A30.41,30.41,0,0,1,1,41.45a4.93,4.93,0,0,1-.71-1.18A4,4,0,0,1,0,38.82a3.93,3.93,0,0,1,1.14-2.7A4.68,4.68,0,0,1,3.7,34.79a6.51,6.51,0,0,1,2.78.08A18.39,18.39,0,0,1,11.24,37a14.57,14.57,0,0,1,2.22,1.55c.34.34.72.71,1,1l.82,1-1.75.63c0-1.39,0-2.87,0-4.36q.06-5.57.1-10.82c0-1.75,0-3.46.06-5.14,0-.84,0-1.68,0-2.5s0-1.58.09-2.54a10.47,10.47,0,0,1,.64-2.52,7.05,7.05,0,0,1,.59-1.21,5.78,5.78,0,0,1,.87-1,5.21,5.21,0,0,1,2.32-1.3,4.71,4.71,0,0,1,2.61.09A4.63,4.63,0,0,1,23,11.22a5,5,0,0,1,1.13,2.1c.3,1.39.47,2.63.62,3.86a67.9,67.9,0,0,1,.39,11.58C25,31.49,24.66,33,24.54,33Z"/><path class="cls-1" d="M14.35,66.8c.07-.09.64.27,1.71.88a20.74,20.74,0,0,0,4.82,2,15.15,15.15,0,0,0,3.6.52,23.89,23.89,0,0,0,4.26-.35,16.39,16.39,0,0,0,4.49-1.57,18.49,18.49,0,0,0,4.24-3.08l-.19,1.12a7.61,7.61,0,0,1-.86-4.18,13.56,13.56,0,0,1,1-4.13c1-2.61,2.47-5,2.8-7.56.51-3.8-.76-7.87.08-11.93A22.56,22.56,0,0,0,40.88,36a1.78,1.78,0,0,0-.11-.89,1.37,1.37,0,0,0-.49-.59,1.77,1.77,0,0,0-1.62.17,11.18,11.18,0,0,0-1.92,1.24l0,0A.84.84,0,0,1,35.42,35a2.8,2.8,0,0,0-.48-2.36A2.92,2.92,0,0,0,33,31.3a3,3,0,0,0-2.07.6,2.84,2.84,0,0,0-1.08,1.65v.05a.59.59,0,0,1-1.16-.12,8.76,8.76,0,0,0-.39-3.22,2.77,2.77,0,0,0-1.5-1.6,2.22,2.22,0,0,0-1.39-.18c-.33.08-.5.17-.54.12s.07-.22.42-.42A2.3,2.3,0,0,1,27,28.07a3.23,3.23,0,0,1,1.15.59,3.54,3.54,0,0,1,1,1.23,9.2,9.2,0,0,1,.74,3.55l-1.17-.07a4.24,4.24,0,0,1,4.46-3.52,4.37,4.37,0,0,1,3.05,1.82,4.88,4.88,0,0,1,.84,1.71,4,4,0,0,1,0,2.11l-1.33-.93a12.93,12.93,0,0,1,2.21-1.5,5.15,5.15,0,0,1,1.48-.49,2.86,2.86,0,0,1,1.84.35,3.23,3.23,0,0,1,1.23,1.39,3.63,3.63,0,0,1,.29,1.77,20.77,20.77,0,0,1-.58,2.84,20.74,20.74,0,0,0-.07,5.53,28.49,28.49,0,0,1,.1,6.29A16.24,16.24,0,0,1,40.89,55c-.57,1.31-1.19,2.52-1.67,3.72-.95,2.33-1.32,4.87-.32,6.71a.94.94,0,0,1-.19,1.12h0A19.32,19.32,0,0,1,34,69.83a17.33,17.33,0,0,1-5,1.56,24.15,24.15,0,0,1-4.59.18,15.77,15.77,0,0,1-3.85-.8,16.93,16.93,0,0,1-4.83-2.59C14.74,67.39,14.29,66.87,14.35,66.8Z"/><path class="cls-1" d="M26.86,13.4c-.14,0-.31-.34-.53-1a27.49,27.49,0,0,0-.93-2.62A6,6,0,0,0,23.09,7a3.3,3.3,0,0,0-.88-.35c-.35-.08-.76-.15-1.16-.21s-.84-.1-1.2-.11-.82,0-1.23.07a7.63,7.63,0,0,0-4.15,1.86,8.29,8.29,0,0,0-2.23,3.1c-.9,2.12-1.08,3.64-1.39,3.62s-.58-1.57.06-4.08a8.5,8.5,0,0,1,2.33-4,9.14,9.14,0,0,1,2.25-1.62,8.63,8.63,0,0,1,2.9-.86,12.55,12.55,0,0,1,1.5-.07,12.3,12.3,0,0,1,1.46.16,13.68,13.68,0,0,1,1.35.3,4.93,4.93,0,0,1,1.37.64,6.83,6.83,0,0,1,2.66,3.91,10.94,10.94,0,0,1,.37,3C27.08,13,27,13.38,26.86,13.4Z"/><path class="cls-1" d="M26.71,2.52c-.14.27-1.3-.15-3.17-.45a16.28,16.28,0,0,0-7.21.4A13.19,13.19,0,0,0,10.18,6C9,7.38,8.53,8.56,8.23,8.47s-.31-1.42.82-3.29a9.36,9.36,0,0,1,2.62-2.7A14.22,14.22,0,0,1,15.77.56,13.45,13.45,0,0,1,23.88.7C25.86,1.41,26.83,2.31,26.71,2.52Z"/><path class="cls-1" d="M27.14,17.94c-.18-.23.21-.8.71-1.67a14.6,14.6,0,0,0,1.54-3.49A15.13,15.13,0,0,0,29.91,9c0-1,0-1.69.26-1.8s.76.46,1.13,1.58a8.31,8.31,0,0,1-2.37,8.41C28,18,27.29,18.15,27.14,17.94Z"/><path class="cls-1" d="M12.59,19.92c-.1.24-.8.23-1.77-.24a7.18,7.18,0,0,1-3-2.89,7.16,7.16,0,0,1-1-4.06,2.3,2.3,0,0,1,.5-1.33c.25-.27.49-.29.58-.2s.1.28.13.51a5.74,5.74,0,0,0,.2.94A13.87,13.87,0,0,0,9.57,15.8C10.87,18.14,12.81,19.4,12.59,19.92Z"/><path class="cls-1" d="M32.24,58.41c-.21-.2.12-.87.62-1.88s1.18-2.4,1.84-4,1.23-3.08,1.74-4.14.94-1.7,1.2-1.63.31.84.15,2a19.26,19.26,0,0,1-1.25,4.51A13.32,13.32,0,0,1,34,57.35C33.14,58.24,32.43,58.59,32.24,58.41Z"/></g></g></svg>